# xmcd
#
# Track frame offsets: 
#        150
#        9912
#        26989
#        39130
#        59177
#
# Disc length: 1031 seconds
#
# Revision: 0
# Processed by: cddbd v1.5.2PL0 Copyright (c) Steve Scherf et al.
# Submitted via: ExactAudioCopy v1.0b3
#
DISCID=39040505
DTITLE=Price, Toni - Price Is Right
DYEAR=2007
DGENRE=Blues
TTITLE0=The Christmas Boogie
TTITLE1=Talk Memphis
TTITLE2=Price, Toni with Roger Wallace - Blow Wind Blow
TTITLE3=Tonight The Bottle Let Me Down
TTITLE4=Sarah
EXTD=
EXTT0=
EXTT1=
EXTT2=
EXTT3=
EXTT4=
PLAYORDER=
